<svg width="500" height="80" viewBox="0 0 243.28 32.64" xmlns="http://www.w3.org/2000/svg"><g id="svgGroup" stroke-linecap="round" fill-rule="evenodd" font-size="9pt" stroke="#ffffff" stroke-width="0.2mm" fill="#ffffff" style="stroke:#ffffff;stroke-width:0.2mm;fill:#ffffff"><path d="M 49.24 32.64 L 49.04 32.64 L 49 27.48 A 8.07 8.07 0 0 1 46.291 30.511 A 9.806 9.806 0 0 1 45.84 30.8 Q 43.72 32.08 41.36 32.08 A 6.605 6.605 0 0 1 39.393 31.801 A 5.228 5.228 0 0 1 37.06 30.32 A 5.994 5.994 0 0 1 35.599 27.371 A 8.61 8.61 0 0 1 35.44 25.68 L 35.44 14.8 Q 35.44 13.786 35.173 13.075 A 2.745 2.745 0 0 0 34.84 12.44 Q 34.326 11.72 32.755 11.617 A 8.491 8.491 0 0 0 32.2 11.6 L 32.2 11.2 L 36.24 11.2 A 15.234 15.234 0 0 0 37.367 11.161 Q 38.468 11.079 39.191 10.824 A 3.793 3.793 0 0 0 39.36 10.76 A 4.548 4.548 0 0 0 39.952 10.45 Q 40.247 10.264 40.461 10.051 A 2.074 2.074 0 0 0 40.76 9.68 L 41.16 9.68 L 41.16 26.08 A 8.145 8.145 0 0 0 41.255 27.36 Q 41.365 28.05 41.603 28.612 A 4.04 4.04 0 0 0 41.96 29.28 A 3.085 3.085 0 0 0 42.552 29.951 A 2.262 2.262 0 0 0 44.04 30.48 Q 45.087 30.48 46.19 29.725 A 6.68 6.68 0 0 0 46.6 29.42 A 8.404 8.404 0 0 0 47.984 27.993 A 11.393 11.393 0 0 0 48.92 26.56 L 48.92 14.8 Q 48.92 13.517 48.348 12.678 A 2.836 2.836 0 0 0 48.2 12.48 A 2.117 2.117 0 0 0 47.334 11.863 Q 46.973 11.717 46.516 11.652 A 5.663 5.663 0 0 0 45.72 11.6 L 45.72 11.2 L 49.76 11.2 A 15.234 15.234 0 0 0 50.887 11.161 Q 51.988 11.079 52.711 10.824 A 3.793 3.793 0 0 0 52.88 10.76 A 4.749 4.749 0 0 0 53.468 10.465 Q 54.045 10.12 54.32 9.68 L 54.72 9.68 L 54.68 27.92 A 3.836 3.836 0 0 0 54.824 28.996 A 2.966 2.966 0 0 0 55.56 30.26 A 2.946 2.946 0 0 0 57.318 31.123 A 4.113 4.113 0 0 0 57.88 31.16 L 57.88 31.52 L 53.92 31.52 A 30.852 30.852 0 0 0 53.056 31.531 Q 52.662 31.543 52.31 31.564 A 17.593 17.593 0 0 0 52.08 31.58 Q 51.32 31.637 50.813 31.712 A 9.227 9.227 0 0 0 50.76 31.72 Q 49.999 31.889 49.556 32.277 A 1.729 1.729 0 0 0 49.24 32.64 Z M 84.68 31.52 L 71.64 31.52 L 71.64 31.12 A 3.836 3.836 0 0 0 72.716 30.976 A 2.966 2.966 0 0 0 73.98 30.24 A 2.946 2.946 0 0 0 74.843 28.482 A 4.113 4.113 0 0 0 74.88 27.92 L 74.88 11.92 L 71.48 11.92 L 71.88 11.2 L 74.88 11.2 L 74.88 10.28 Q 74.88 7.32 75.847 5.138 A 9.453 9.453 0 0 1 75.9 5.02 A 8.554 8.554 0 0 1 77.415 2.729 A 7.666 7.666 0 0 1 78.8 1.56 Q 80.68 0.32 83.24 0.32 Q 85 0.32 86.58 0.86 A 9.3 9.3 0 0 1 88.301 1.642 A 7.767 7.767 0 0 1 89.3 2.34 A 5.727 5.727 0 0 1 90.374 3.492 A 4.907 4.907 0 0 1 90.92 4.52 L 86.12 7.24 Q 86.08 5.8 85.9 4.64 A 9.077 9.077 0 0 0 85.666 3.551 A 6.764 6.764 0 0 0 85.32 2.6 Q 84.918 1.714 84.403 1.274 A 1.687 1.687 0 0 0 83.28 0.84 A 1.546 1.546 0 0 0 82.086 1.41 Q 81.857 1.668 81.667 2.045 A 5.35 5.35 0 0 0 81.36 2.8 A 9.764 9.764 0 0 0 80.95 4.318 Q 80.645 5.904 80.64 8.09 A 31.946 31.946 0 0 0 80.64 8.16 L 80.64 11.2 L 86.04 11.2 L 85.64 11.92 L 80.64 11.92 L 80.64 27.92 A 3.043 3.043 0 0 0 80.866 29.11 A 2.857 2.857 0 0 0 81.74 30.24 A 3.847 3.847 0 0 0 83.234 30.96 Q 83.874 31.12 84.64 31.12 L 84.68 31.12 L 84.68 31.52 Z M 180.24 20.44 L 183.96 19.08 L 183.96 16.08 A 11.754 11.754 0 0 0 183.883 14.685 Q 183.799 13.981 183.622 13.397 A 5.064 5.064 0 0 0 183.24 12.46 A 3.179 3.179 0 0 0 182.765 11.784 A 2.011 2.011 0 0 0 181.24 11.12 A 2.394 2.394 0 0 0 179.706 11.747 Q 179.35 12.055 179.031 12.514 A 6.374 6.374 0 0 0 178.66 13.12 A 9.513 9.513 0 0 0 177.989 14.725 Q 177.73 15.528 177.543 16.487 A 23.443 23.443 0 0 0 177.24 18.56 L 172.92 16.08 A 7.81 7.81 0 0 1 174.979 13.219 A 8.985 8.985 0 0 1 175 13.2 Q 176.4 11.96 178.22 11.28 Q 180.04 10.6 182.04 10.6 Q 185.44 10.6 187.58 12.5 A 6.249 6.249 0 0 1 189.639 16.451 A 8.932 8.932 0 0 1 189.72 17.68 L 189.72 27.32 A 5.105 5.105 0 0 0 189.78 28.138 Q 190.015 29.579 191.181 29.638 A 1.999 1.999 0 0 0 191.28 29.64 Q 192.028 29.64 192.749 28.98 A 4.41 4.41 0 0 0 193.08 28.64 L 193.4 28.92 Q 192.36 30.32 190.88 31.2 A 6.907 6.907 0 0 1 189.646 31.786 A 4.938 4.938 0 0 1 188 32.08 Q 186.48 32.08 185.38 31.04 Q 184.28 30 184 28.28 A 31.216 31.216 0 0 1 182.824 29.423 Q 181.584 30.561 180.58 31.18 Q 179.12 32.08 177.36 32.08 A 7.329 7.329 0 0 1 175.682 31.898 A 5.034 5.034 0 0 1 173.44 30.76 A 4.353 4.353 0 0 1 171.973 27.678 A 5.977 5.977 0 0 1 171.96 27.28 Q 171.96 26.36 172.28 25.54 Q 172.6 24.72 173.48 23.92 Q 174.4 23.12 176 22.26 A 21.212 21.212 0 0 1 177.223 21.657 Q 178.508 21.07 180.24 20.44 Z M 211.44 17.4 L 206.64 20.08 A 26.014 26.014 0 0 0 206.528 17.583 Q 206.299 15.212 205.6 13.6 Q 205.017 12.277 204.17 11.696 A 2.572 2.572 0 0 0 202.68 11.24 Q 201.4 11.24 200.46 12.28 Q 199.52 13.32 199.02 15.08 A 12.852 12.852 0 0 0 198.616 17.187 A 16.56 16.56 0 0 0 198.52 19 A 15.4 15.4 0 0 0 198.705 21.442 A 11.331 11.331 0 0 0 199.36 23.86 A 8.841 8.841 0 0 0 200.297 25.627 A 6.831 6.831 0 0 0 201.72 27.14 A 5.612 5.612 0 0 0 204.935 28.31 A 7.067 7.067 0 0 0 205.32 28.32 Q 207.24 28.32 208.98 27.36 Q 210.72 26.4 211.84 24.76 L 212.24 24.88 Q 211.56 27.04 210.08 28.66 Q 208.6 30.28 206.62 31.18 Q 204.64 32.08 202.4 32.08 A 9.405 9.405 0 0 1 199.386 31.609 A 8.432 8.432 0 0 1 197.56 30.74 A 8.946 8.946 0 0 1 194.412 27.296 A 10.71 10.71 0 0 1 194.26 27 A 11.458 11.458 0 0 1 193.196 23.381 A 14.564 14.564 0 0 1 193.08 21.52 A 13.189 13.189 0 0 1 193.431 18.417 A 10.689 10.689 0 0 1 194.4 15.86 Q 195.72 13.4 198.02 12.02 A 9.747 9.747 0 0 1 202.665 10.652 A 11.694 11.694 0 0 1 203.2 10.64 A 10.205 10.205 0 0 1 205.81 10.958 A 7.736 7.736 0 0 1 208.78 12.46 A 7.298 7.298 0 0 1 211.303 16.64 A 9.62 9.62 0 0 1 211.44 17.4 Z M 7.66 30.14 A 15.726 15.726 0 0 0 11.608 31.602 Q 13.699 32.08 16.08 32.08 A 21.073 21.073 0 0 0 19.217 31.854 Q 22.115 31.418 24.5 30.14 Q 28.12 28.2 30.14 24.7 A 14.539 14.539 0 0 0 31.686 20.777 A 18.336 18.336 0 0 0 32.16 16.52 Q 32.16 11.84 30.14 8.34 Q 28.12 4.84 24.5 2.9 A 15.758 15.758 0 0 0 20.454 1.415 A 20.126 20.126 0 0 0 16.08 0.96 A 21.054 21.054 0 0 0 12.92 1.189 A 16.183 16.183 0 0 0 7.66 2.9 Q 4.04 4.84 2.02 8.34 A 14.539 14.539 0 0 0 0.474 12.263 A 18.336 18.336 0 0 0 0 16.52 Q 0 21.2 2.02 24.7 Q 4.04 28.2 7.66 30.14 Z M 128.18 30.14 A 15.726 15.726 0 0 0 132.128 31.602 Q 134.219 32.08 136.6 32.08 A 21.073 21.073 0 0 0 139.737 31.854 Q 142.635 31.418 145.02 30.14 Q 148.64 28.2 150.66 24.7 A 14.539 14.539 0 0 0 152.206 20.777 A 18.336 18.336 0 0 0 152.68 16.52 Q 152.68 11.84 150.66 8.34 Q 148.64 4.84 145.02 2.9 A 15.758 15.758 0 0 0 140.974 1.415 A 20.126 20.126 0 0 0 136.6 0.96 A 21.054 21.054 0 0 0 133.44 1.189 A 16.183 16.183 0 0 0 128.18 2.9 Q 124.56 4.84 122.54 8.34 A 14.539 14.539 0 0 0 120.994 12.263 A 18.336 18.336 0 0 0 120.52 16.52 Q 120.52 21.2 122.54 24.7 Q 124.56 28.2 128.18 30.14 Z M 165.88 31.52 L 153.64 31.52 L 153.64 31.12 L 153.68 31.12 A 3.826 3.826 0 0 0 154.72 30.986 A 2.885 2.885 0 0 0 156 30.24 A 2.953 2.953 0 0 0 156.832 28.564 A 4.137 4.137 0 0 0 156.88 27.92 L 156.88 14.8 A 6.04 6.04 0 0 0 156.82 13.916 Q 156.75 13.442 156.598 13.058 A 2.706 2.706 0 0 0 156.26 12.44 A 1.642 1.642 0 0 0 155.636 11.945 Q 154.922 11.6 153.64 11.6 L 153.64 11.2 L 157.6 11.2 Q 159.438 11.2 160.494 10.885 A 4.022 4.022 0 0 0 160.8 10.78 Q 161.88 10.36 162.32 9.68 L 162.52 9.68 L 162.56 16.24 A 17.424 17.424 0 0 1 163.24 14.852 A 22.571 22.571 0 0 1 163.9 13.72 Q 164.72 12.4 165.98 11.5 A 4.812 4.812 0 0 1 168.203 10.649 A 6.26 6.26 0 0 1 169 10.6 Q 169.6 10.6 170.28 10.72 A 6.015 6.015 0 0 1 171.071 10.918 A 7.868 7.868 0 0 1 171.72 11.16 L 170.16 15.84 A 19.081 19.081 0 0 0 169.174 15.327 Q 168.705 15.101 168.284 14.937 A 8.454 8.454 0 0 0 167.66 14.72 Q 166.849 14.475 166.19 14.418 A 4.489 4.489 0 0 0 165.8 14.4 A 3.487 3.487 0 0 0 165.019 14.482 Q 164.485 14.605 164.105 14.911 A 2.032 2.032 0 0 0 163.78 15.24 Q 163.12 16.08 162.64 17.24 L 162.64 27.92 A 3.826 3.826 0 0 0 162.775 28.96 A 2.885 2.885 0 0 0 163.52 30.24 A 2.953 2.953 0 0 0 165.196 31.072 A 4.137 4.137 0 0 0 165.84 31.12 L 165.88 31.12 L 165.88 31.52 Z M 242.92 18.32 L 242.96 18.92 L 229.52 18.92 L 229.52 19.12 A 15.535 15.535 0 0 0 229.753 21.891 Q 230.034 23.441 230.656 24.683 A 8.237 8.237 0 0 0 231.4 25.9 A 6.315 6.315 0 0 0 233.367 27.68 Q 234.712 28.44 236.44 28.44 Q 238.36 28.44 240.1 27.5 Q 241.84 26.56 242.92 24.96 L 243.28 25.08 Q 242.6 27.12 241.16 28.68 Q 239.72 30.24 237.76 31.12 A 10.179 10.179 0 0 1 233.733 31.998 A 11.7 11.7 0 0 1 233.52 32 A 9.535 9.535 0 0 1 230.536 31.545 A 8.475 8.475 0 0 1 228.62 30.64 A 9.146 9.146 0 0 1 225.434 27.158 A 10.914 10.914 0 0 1 225.28 26.86 A 11.469 11.469 0 0 1 224.203 23.247 A 14.638 14.638 0 0 1 224.08 21.32 Q 224.08 19.732 224.405 18.342 A 10.248 10.248 0 0 1 225.4 15.72 Q 226.72 13.32 229.02 11.98 A 9.921 9.921 0 0 1 233.332 10.674 A 12.124 12.124 0 0 1 234.24 10.64 A 10.585 10.585 0 0 1 236.647 10.903 A 8.592 8.592 0 0 1 238.58 11.6 Q 240.48 12.56 241.62 14.3 A 8.032 8.032 0 0 1 242.836 17.552 A 9.779 9.779 0 0 1 242.92 18.32 Z M 224.04 31.52 L 211.8 31.52 L 211.8 31.12 A 3.93 3.93 0 0 0 212.862 30.983 A 2.984 2.984 0 0 0 214.14 30.26 A 2.846 2.846 0 0 0 214.973 28.683 A 4.132 4.132 0 0 0 215.04 27.92 L 215.04 5.12 A 3.746 3.746 0 0 0 214.903 4.08 A 2.871 2.871 0 0 0 214.14 2.8 A 3.047 3.047 0 0 0 212.373 1.958 A 4.216 4.216 0 0 0 211.8 1.92 L 211.8 1.52 L 215.88 1.52 A 15.234 15.234 0 0 0 217.007 1.481 Q 218.108 1.399 218.831 1.144 A 3.793 3.793 0 0 0 219 1.08 A 4.548 4.548 0 0 0 219.592 0.77 Q 219.887 0.584 220.101 0.371 A 2.074 2.074 0 0 0 220.4 0 L 220.8 0 L 220.8 27.92 Q 220.8 29.4 221.7 30.26 A 3.059 3.059 0 0 0 223.395 31.073 A 4.252 4.252 0 0 0 224.04 31.12 L 224.04 31.52 Z M 59.76 27.32 L 59.76 11.92 L 56.36 11.92 L 56.36 11.4 Q 59.12 11.2 61.3 9.64 A 11.458 11.458 0 0 0 64.206 6.581 A 14.017 14.017 0 0 0 64.88 5.44 L 65.52 5.44 L 65.52 11.2 L 70.84 11.2 L 70.44 11.92 L 65.52 11.92 L 65.52 26.44 Q 65.52 29.64 67.68 29.64 A 2.886 2.886 0 0 0 68.302 29.567 Q 68.6 29.501 68.929 29.376 A 6.219 6.219 0 0 0 69.34 29.2 A 7.776 7.776 0 0 0 70.988 28.151 A 8.718 8.718 0 0 0 71.12 28.04 L 71.12 28.44 Q 69.8 30.12 68 31.1 A 8.596 8.596 0 0 1 66.344 31.799 A 6.513 6.513 0 0 1 64.48 32.08 A 5.344 5.344 0 0 1 62.862 31.846 A 4.334 4.334 0 0 1 61.08 30.76 A 4.448 4.448 0 0 1 59.808 28.095 A 6.144 6.144 0 0 1 59.76 27.32 Z M 99.36 27.32 L 99.36 11.92 L 95.96 11.92 L 95.96 11.4 Q 98.72 11.2 100.9 9.64 A 11.458 11.458 0 0 0 103.806 6.581 A 14.017 14.017 0 0 0 104.48 5.44 L 105.12 5.44 L 105.12 11.2 L 110.44 11.2 L 110.04 11.92 L 105.12 11.92 L 105.12 26.44 Q 105.12 29.64 107.28 29.64 A 2.886 2.886 0 0 0 107.902 29.567 Q 108.2 29.501 108.529 29.376 A 6.219 6.219 0 0 0 108.94 29.2 A 7.776 7.776 0 0 0 110.588 28.151 A 8.718 8.718 0 0 0 110.72 28.04 L 110.72 28.44 Q 109.4 30.12 107.6 31.1 A 8.596 8.596 0 0 1 105.944 31.799 A 6.513 6.513 0 0 1 104.08 32.08 A 5.344 5.344 0 0 1 102.462 31.846 A 4.334 4.334 0 0 1 100.68 30.76 A 4.448 4.448 0 0 1 99.408 28.095 A 6.144 6.144 0 0 1 99.36 27.32 Z M 16.08 31.44 Q 18.16 31.44 19.88 30.36 A 8.946 8.946 0 0 0 22.062 28.406 A 11.23 11.23 0 0 0 22.84 27.32 A 13.982 13.982 0 0 0 23.959 25.021 A 19.283 19.283 0 0 0 24.7 22.6 A 23.571 23.571 0 0 0 25.234 19.305 A 30.453 30.453 0 0 0 25.36 16.48 A 29.743 29.743 0 0 0 25.163 12.978 A 23.303 23.303 0 0 0 24.7 10.34 A 19.408 19.408 0 0 0 23.97 7.933 Q 23.498 6.689 22.88 5.666 A 11.927 11.927 0 0 0 22.84 5.6 A 10.54 10.54 0 0 0 21.387 3.766 A 8.615 8.615 0 0 0 19.88 2.56 Q 18.16 1.48 16.08 1.48 Q 14 1.48 12.28 2.56 Q 10.56 3.64 9.36 5.6 Q 8.12 7.56 7.46 10.34 A 23.911 23.911 0 0 0 6.927 13.651 A 30.577 30.577 0 0 0 6.8 16.48 A 29.711 29.711 0 0 0 6.987 19.881 A 23.032 23.032 0 0 0 7.46 22.6 A 18.355 18.355 0 0 0 8.207 25.012 A 13.483 13.483 0 0 0 9.36 27.32 A 10.032 10.032 0 0 0 10.828 29.201 A 8.332 8.332 0 0 0 12.28 30.36 Q 14 31.44 16.08 31.44 Z M 136.6 31.44 Q 138.68 31.44 140.4 30.36 A 8.946 8.946 0 0 0 142.582 28.406 A 11.23 11.23 0 0 0 143.36 27.32 A 13.982 13.982 0 0 0 144.479 25.021 A 19.283 19.283 0 0 0 145.22 22.6 A 23.571 23.571 0 0 0 145.754 19.305 A 30.453 30.453 0 0 0 145.88 16.48 A 29.743 29.743 0 0 0 145.683 12.978 A 23.303 23.303 0 0 0 145.22 10.34 A 19.408 19.408 0 0 0 144.49 7.933 Q 144.018 6.689 143.4 5.666 A 11.927 11.927 0 0 0 143.36 5.6 A 10.54 10.54 0 0 0 141.907 3.766 A 8.615 8.615 0 0 0 140.4 2.56 Q 138.68 1.48 136.6 1.48 Q 134.52 1.48 132.8 2.56 Q 131.08 3.64 129.88 5.6 Q 128.64 7.56 127.98 10.34 A 23.911 23.911 0 0 0 127.447 13.651 A 30.577 30.577 0 0 0 127.32 16.48 A 29.711 29.711 0 0 0 127.507 19.881 A 23.032 23.032 0 0 0 127.98 22.6 A 18.355 18.355 0 0 0 128.727 25.012 A 13.483 13.483 0 0 0 129.88 27.32 A 10.032 10.032 0 0 0 131.348 29.201 A 8.332 8.332 0 0 0 132.8 30.36 Q 134.52 31.44 136.6 31.44 Z M 96.64 31.52 L 84.4 31.52 L 84.4 31.12 L 84.44 31.12 A 3.826 3.826 0 0 0 85.48 30.986 A 2.885 2.885 0 0 0 86.76 30.24 A 2.953 2.953 0 0 0 87.592 28.564 A 4.137 4.137 0 0 0 87.64 27.92 L 87.64 14.8 A 6.04 6.04 0 0 0 87.58 13.916 Q 87.51 13.442 87.358 13.058 A 2.706 2.706 0 0 0 87.02 12.44 A 1.642 1.642 0 0 0 86.396 11.945 Q 85.682 11.6 84.4 11.6 L 84.4 11.2 L 88.48 11.2 A 15.234 15.234 0 0 0 89.607 11.161 Q 90.708 11.079 91.431 10.824 A 3.793 3.793 0 0 0 91.6 10.76 A 4.548 4.548 0 0 0 92.192 10.45 Q 92.487 10.264 92.701 10.051 A 2.074 2.074 0 0 0 93 9.68 L 93.4 9.68 L 93.4 27.92 A 3.826 3.826 0 0 0 93.535 28.96 A 2.885 2.885 0 0 0 94.28 30.24 A 2.953 2.953 0 0 0 95.956 31.072 A 4.137 4.137 0 0 0 96.6 31.12 L 96.64 31.12 L 96.64 31.52 Z M 183.92 27.72 L 183.96 19.6 L 182.36 20.2 Q 180.379 20.938 179.303 21.696 A 6.29 6.29 0 0 0 179.24 21.74 A 5.519 5.519 0 0 0 178.478 22.397 Q 178.067 22.827 177.825 23.302 A 3.293 3.293 0 0 0 177.74 23.48 A 4.938 4.938 0 0 0 177.382 24.772 A 6.463 6.463 0 0 0 177.32 25.68 A 5.633 5.633 0 0 0 177.451 26.926 A 3.926 3.926 0 0 0 178.18 28.5 A 3.013 3.013 0 0 0 178.955 29.212 A 2.6 2.6 0 0 0 180.36 29.6 A 3.538 3.538 0 0 0 182.009 29.187 A 4.13 4.13 0 0 0 182.06 29.16 Q 182.634 28.852 183.316 28.27 A 13.91 13.91 0 0 0 183.92 27.72 Z M 229.56 18.32 L 237.68 18.32 Q 237.68 16.035 237.147 14.377 A 7.565 7.565 0 0 0 236.66 13.2 Q 235.64 11.24 233.8 11.24 Q 232.075 11.24 230.926 13.086 A 6.563 6.563 0 0 0 230.88 13.16 A 7.914 7.914 0 0 0 230.103 14.938 Q 229.83 15.827 229.688 16.888 A 17.25 17.25 0 0 0 229.56 18.32 Z M 89.288 6.97 A 3.613 3.613 0 0 0 90.48 7.16 Q 91.88 7.16 92.82 6.2 A 3.236 3.236 0 0 0 93.51 5.167 A 3.441 3.441 0 0 0 93.76 3.84 A 4.146 4.146 0 0 0 93.76 3.829 A 3.241 3.241 0 0 0 92.82 1.48 Q 91.88 0.52 90.48 0.52 A 4.223 4.223 0 0 0 90.237 0.527 A 3.174 3.174 0 0 0 88.1 1.46 A 3.102 3.102 0 0 0 87.35 2.647 A 3.613 3.613 0 0 0 87.16 3.84 A 4.223 4.223 0 0 0 87.167 4.084 A 3.174 3.174 0 0 0 88.1 6.22 A 3.102 3.102 0 0 0 89.288 6.97 Z" vector-effect="non-scaling-stroke"/></g></svg>